M48
; DRILL file KiCad 10.0.0 date 2026-07-07T22:15:10
; FORMAT={-:-/ absolute / metric / decimal}
; #@! TF.CreationDate,2026-07-07T22:15:10-04:00
; #@! TF.GenerationSoftware,Kicad,Pcbnew,10.0.0
; #@! TF.FileFunction,Plated,1,2,PTH
FMAT,2
METRIC
; #@! TA.AperFunction,Plated,PTH,ComponentDrill
T1C0.500
; #@! TA.AperFunction,Plated,PTH,ComponentDrill
T2C1.020
; #@! TA.AperFunction,Plated,PTH,ComponentDrill
T3C1.100
%
G90
G05
T1
X148.5Y-72.0
X148.5Y-73.0
X148.5Y-74.0
X148.5Y-75.0
X148.5Y-76.0
X148.5Y-77.0
X148.5Y-78.0
X148.5Y-79.0
X148.5Y-80.0
X148.5Y-81.0
X148.5Y-82.0
X148.5Y-83.0
X148.5Y-84.0
X148.5Y-85.0
X148.5Y-86.0
X149.5Y-72.0
X149.5Y-73.0
X149.5Y-74.0
X149.5Y-75.0
X149.5Y-76.0
X149.5Y-77.0
X149.5Y-78.0
X149.5Y-79.0
X149.5Y-80.0
X149.5Y-81.0
X149.5Y-82.0
X149.5Y-83.0
X149.5Y-84.0
X149.5Y-85.0
X149.5Y-86.0
T2
X147.38Y-67.0
X149.92Y-67.0
X152.46Y-67.0
X155.0Y-67.0
T3
X134.5Y-66.9
X134.5Y-71.4
X134.5Y-75.45
X134.5Y-79.95
X134.5Y-84.0
X134.5Y-88.5
X134.5Y-92.55
X134.5Y-97.05
X141.0Y-66.9
X141.0Y-71.4
X141.0Y-75.45
X141.0Y-79.95
X141.0Y-84.0
X141.0Y-88.5
X141.0Y-92.55
X141.0Y-97.05
M30
